<?xml version="1.0" encoding="utf-8"?>
<!-- Generator: Adobe Illustrator 16.0.0, SVG Export Plug-In . SVG Version: 6.00 Build 0)  -->
<!DOCTYPE svg PUBLIC "-//W3C//DTD SVG 1.1//EN" "http://www.w3.org/Graphics/SVG/1.1/DTD/svg11.dtd">
<svg version="1.1" id="Layer_1" xmlns="http://www.w3.org/2000/svg" xmlns:xlink="http://www.w3.org/1999/xlink" x="0px" y="0px"
	 width="52px" height="52px" viewBox="0 0 52 52" enable-background="new 0 0 52 52" xml:space="preserve">
<symbol  id="TextInput_x5F_borderSkin" viewBox="-77 -11 154 22">
	<polygon fill="#FFFFFF" points="76.25,-10 -76.249,-10 -76.249,10 76.25,10 	"/>
	<polygon fill="#6E6F70" points="-76.25,10 -76.25,11 76.25,11 76.25,10 -76.25,10 	"/>
	<polygon fill="#D2D5D6" points="-77,-11 -77,11 -76.998,11 -76.003,11 -76.003,-10 76.003,-10 76.003,11 77,11 77,-11 -77,-11 	"/>
</symbol>
<symbol  id="TextInput_x5F_borderSkin_2" viewBox="-77 -11 154 22">
	<polygon fill="#FFFFFF" points="76.25,-10 -76.249,-10 -76.249,10 76.25,10 	"/>
	<polygon fill="#6D6F70" points="-76.25,10 -76.25,11 76.25,11 76.25,10 -76.25,10 	"/>
	<polygon fill="#D3D5D6" points="-77,-11 -77,11 -76.998,11 -76.003,11 -76.003,-10 76.003,-10 76.003,11 77,11 77,-11 -77,-11 	"/>
</symbol>
<g id="acr_bubbles">
	<g id="play_static">
		<g>
			<path fill="#5D5F61" d="M48.729,26c0,12.544-10.176,22.729-22.729,22.729S3.271,38.544,3.271,26
				C3.271,13.446,13.446,3.271,26,3.271S48.729,13.446,48.729,26z"/>
			<path fill="#F18F00" d="M26,51C12.216,51,1,39.784,1,26S12.216,1,26,1s25,11.216,25,25S39.784,51,26,51z M26,5.546
				C14.721,5.546,5.546,14.721,5.546,26S14.721,46.454,26,46.454S46.454,37.279,46.454,26S37.279,5.546,26,5.546z"/>
		</g>
	</g>
	<g id="download_static">
	</g>
</g>
</svg>
