<?xml version="1.0" encoding="utf-8"?>
<!-- Generator: Adobe Illustrator 16.0.0, SVG Export Plug-In . SVG Version: 6.00 Build 0)  -->
<!DOCTYPE svg PUBLIC "-//W3C//DTD SVG 1.1//EN" "http://www.w3.org/Graphics/SVG/1.1/DTD/svg11.dtd">
<svg version="1.1" id="Layer_1" xmlns="http://www.w3.org/2000/svg" xmlns:xlink="http://www.w3.org/1999/xlink" x="0px" y="0px"
	 width="204.295px" height="204.046px" viewBox="0 0 204.295 204.046" enable-background="new 0 0 204.295 204.046"
	 xml:space="preserve">
<path fill="#555759" d="M165.773,90.771v66.481c0,6.108-4.955,11.08-11.08,11.08H43.893c-6.104,0-11.08-4.972-11.08-11.08V35.37
	h77.561l22.16-22.16H32.812c-12.227,0-22.16,9.922-22.16,22.16v121.881c0,18.362,14.889,33.241,33.24,33.241h110.801
	c18.373,0,33.24-14.878,33.24-33.241V68.61L165.773,90.771z"/>
<polygon fill="#555759" points="58.354,142.542 102.674,131.462 102.674,131.462 86.053,114.842 69.434,98.222 "/>
<path fill="#555759" d="M78.219,91.34l31.336,31.347l77.064-77.063c1.211-1.201,1.947-2.759,2.057-4.36
	c0.129-1.58-0.391-3.052-1.43-4.09l-22.658-22.636l-0.865-0.866c-0.975-0.974-2.293-1.46-3.656-1.46
	c-1.668,0-3.42,0.703-4.783,2.077l-0.238,0.249l-22.182,22.16L78.219,91.34z"/>
</svg>
