<?xml version="1.0" encoding="utf-8"?>
<!-- Generator: Adobe Illustrator 16.0.0, SVG Export Plug-In . SVG Version: 6.00 Build 0)  -->
<!DOCTYPE svg PUBLIC "-//W3C//DTD SVG 1.1//EN" "http://www.w3.org/Graphics/SVG/1.1/DTD/svg11.dtd">
<svg version="1.1" id="Layer_1" xmlns="http://www.w3.org/2000/svg" xmlns:xlink="http://www.w3.org/1999/xlink" x="0px" y="0px"
	 width="204.295px" height="204.046px" viewBox="0 0 204.295 204.046" enable-background="new 0 0 204.295 204.046"
	 xml:space="preserve">
<g>
	<path fill="#6F6F6E" d="M171.237,170.59H33.056c-5.234,0-9.48,4.549-9.48,10.149s4.246,10.142,9.48,10.142h138.182
		c5.235,0,9.482-4.542,9.482-10.142S176.473,170.59,171.237,170.59z"/>
	<path fill="#6F6F6E" d="M171.237,91.884H33.056c-5.234,0-9.48,4.537-9.48,10.143c0,5.604,4.246,10.136,9.48,10.136h138.182
		c5.235,0,9.482-4.531,9.482-10.136C180.72,96.421,176.473,91.884,171.237,91.884z"/>
	<path fill="#6F6F6E" d="M33.056,33.452h138.182c5.235,0,9.482-4.538,9.482-10.138c0-5.605-4.247-10.148-9.482-10.148H33.056
		c-5.234,0-9.48,4.543-9.48,10.148C23.575,28.914,27.821,33.452,33.056,33.452z"/>
</g>
</svg>
