<?xml version="1.0" encoding="utf-8"?>
<!-- Generator: Adobe Illustrator 16.0.0, SVG Export Plug-In . SVG Version: 6.00 Build 0)  -->
<!DOCTYPE svg PUBLIC "-//W3C//DTD SVG 1.1//EN" "http://www.w3.org/Graphics/SVG/1.1/DTD/svg11.dtd">
<svg version="1.1" id="Layer_1" xmlns="http://www.w3.org/2000/svg" xmlns:xlink="http://www.w3.org/1999/xlink" x="0px" y="0px"
	 width="204.295px" height="204.046px" viewBox="0 0 204.295 204.046" enable-background="new 0 0 204.295 204.046"
	 xml:space="preserve">
<g>
	<path fill="#6F6F6E" d="M55.33,8.51H14.351c-3.774,0-6.834,3.063-6.834,6.833v40.98c0,3.77,3.06,6.83,6.834,6.83H55.33
		c3.771,0,6.825-3.06,6.825-6.83v-40.98C62.155,11.573,59.101,8.51,55.33,8.51z M48.496,49.489H21.185V22.178h27.312V49.489z"/>
	<path fill="#6F6F6E" d="M55.33,75.176H14.351c-3.774,0-6.834,3.063-6.834,6.834v40.98c0,3.77,3.06,6.826,6.834,6.826H55.33
		c3.771,0,6.825-3.056,6.825-6.826V82.01C62.155,78.24,59.101,75.176,55.33,75.176z M48.496,116.157H21.185V88.844h27.312V116.157z"
		/>
	<path fill="#6F6F6E" d="M55.33,141.843H14.351c-3.774,0-6.834,3.063-6.834,6.834v40.976c0,3.771,3.06,6.83,6.834,6.83H55.33
		c3.771,0,6.825-3.059,6.825-6.83v-40.976C62.155,144.906,59.101,141.843,55.33,141.843z M48.496,182.823H21.185v-27.316h27.312
		V182.823z"/>
	<path fill="#6F6F6E" d="M123.638,8.51H82.658c-3.771,0-6.83,3.063-6.83,6.833v40.98c0,3.77,3.059,6.83,6.83,6.83h40.979
		c3.771,0,6.83-3.06,6.83-6.83v-40.98C130.468,11.573,127.409,8.51,123.638,8.51z M116.808,49.489H89.491V22.178h27.316V49.489z"/>
	<path fill="#6F6F6E" d="M123.638,75.176H82.658c-3.771,0-6.83,3.063-6.83,6.834v40.98c0,3.77,3.059,6.826,6.83,6.826h40.979
		c3.771,0,6.83-3.056,6.83-6.826V82.01C130.468,78.24,127.409,75.176,123.638,75.176z M116.808,116.157H89.491V88.844h27.316
		V116.157z"/>
	<path fill="#6F6F6E" d="M123.638,141.843H82.658c-3.771,0-6.83,3.063-6.83,6.834v40.976c0,3.771,3.059,6.83,6.83,6.83h40.979
		c3.771,0,6.83-3.059,6.83-6.83v-40.976C130.468,144.906,127.409,141.843,123.638,141.843z M116.808,182.823H89.491v-27.316h27.316
		V182.823z"/>
	<path fill="#6F6F6E" d="M191.945,8.51h-40.977c-3.773,0-6.83,3.063-6.83,6.833v40.98c0,3.77,3.057,6.83,6.83,6.83h40.977
		c3.774,0,6.837-3.06,6.837-6.83v-40.98C198.782,11.573,195.72,8.51,191.945,8.51z M185.119,49.489h-27.32V22.178h27.32V49.489z"/>
	<path fill="#6F6F6E" d="M191.945,75.176h-40.977c-3.773,0-6.83,3.063-6.83,6.834v40.98c0,3.77,3.057,6.826,6.83,6.826h40.977
		c3.774,0,6.837-3.056,6.837-6.826V82.01C198.782,78.24,195.72,75.176,191.945,75.176z M185.119,116.157h-27.32V88.844h27.32
		V116.157z"/>
	<path fill="#6F6F6E" d="M191.945,141.843h-40.977c-3.773,0-6.83,3.063-6.83,6.834v40.976c0,3.771,3.057,6.83,6.83,6.83h40.977
		c3.774,0,6.837-3.059,6.837-6.83v-40.976C198.782,144.906,195.72,141.843,191.945,141.843z M185.119,182.823h-27.32v-27.316h27.32
		V182.823z"/>
</g>
</svg>
