<?xml version="1.0" encoding="utf-8"?>
<!-- Generator: Adobe Illustrator 16.0.0, SVG Export Plug-In . SVG Version: 6.00 Build 0)  -->
<!DOCTYPE svg PUBLIC "-//W3C//DTD SVG 1.1//EN" "http://www.w3.org/Graphics/SVG/1.1/DTD/svg11.dtd">
<svg version="1.1" id="Layer_1" xmlns="http://www.w3.org/2000/svg" xmlns:xlink="http://www.w3.org/1999/xlink" x="0px" y="0px"
	 width="204.295px" height="204.046px" viewBox="0 0 204.295 204.046" enable-background="new 0 0 204.295 204.046"
	 xml:space="preserve">
<g>
	<path fill="#F3901D" d="M202.147,102.013c0,55.232-44.771,100.01-100,100.01s-100-44.777-100-100.01
		c0-55.222,44.771-99.99,100-99.99S202.147,46.792,202.147,102.013z"/>
	<g>
		<path fill="#FFFFFF" d="M119.11,13.792c0,0-0.688,0.381-1.807,1.228c-1.113,0.852-2.646,2.2-4.199,4.116
			c-0.781,0.967-1.562,2.056-2.29,3.298c-0.703,1.25-1.411,2.598-1.982,4.128c-1.162,3.018-1.924,6.543-2.192,10.469
			c-0.273,3.931-0.044,8.254,0.586,12.847c0.654,4.595,1.699,9.446,3.062,14.468c1.362,5.012,3.037,10.186,4.902,15.43
			c0.981,2.688,1.968,5.393,2.969,8.105c0.488,1.409,1.011,2.783,1.504,4.209c0.493,1.487,0.972,2.961,1.46,4.436
			c1.865,5.901,3.516,11.831,4.814,17.852c1.284,6.013,2.197,12.068,2.642,18.057c0.444,5.984,0.391,11.902-0.337,17.542
			c-0.107,0.703-0.19,1.401-0.293,2.095c-0.103,0.696-0.244,1.379-0.371,2.063c-0.225,1.357-0.576,2.708-0.898,4.009
			c-0.703,2.61-1.494,5.093-2.485,7.39c-1.904,4.626-4.341,8.467-6.655,11.56c-2.329,3.101-4.585,5.503-6.45,7.437
			c-0.942,0.959-1.777,1.812-2.524,2.537c-0.747,0.732-1.377,1.343-1.904,1.843c-1.035,0.991-1.611,1.526-1.611,1.526
			s0.186-0.754,0.615-2.144c0.42-1.372,1.089-3.406,1.973-5.903c0.874-2.515,1.973-5.493,2.954-8.867
			c0.981-3.372,1.88-7.083,2.31-11.106c0.259-2.002,0.332-4.094,0.391-6.252c-0.039-1.089,0.015-2.178-0.059-3.293
			c-0.024-0.562-0.044-1.125-0.073-1.685c-0.034-0.576-0.083-1.145-0.132-1.729c-0.352-4.612-1.138-9.514-2.212-14.612
			c-1.069-5.095-2.437-10.378-3.94-15.771c-1.519-5.388-3.223-10.901-4.966-16.372l-1.299-4.077
			c-0.464-1.416-0.918-2.827-1.387-4.226l-0.684-2.126c-0.234-0.71-0.454-1.418-0.679-2.134c-0.483-1.47-0.923-2.957-1.338-4.438
			c-0.84-2.983-1.582-5.969-2.227-8.955c-0.61-3.003-1.152-5.989-1.543-8.975c-0.781-5.952-1.04-11.865-0.659-17.527
			c0.381-5.649,1.455-11.062,3.208-15.854c1.758-4.792,4.224-8.923,7.012-12.014c2.754-3.113,5.747-5.181,8.335-6.433
			c1.284-0.635,2.476-1.084,3.525-1.384c1.05-0.322,1.953-0.498,2.69-0.61C118.329,13.733,119.11,13.792,119.11,13.792z"/>
		<g>
			<path fill="#FFFFFF" d="M115.893,71.611c0.522,1.66,1.079,3.332,1.655,5.02c1.309-0.815,2.573-1.585,3.779-2.3
				c2.603-1.526,4.912-2.812,6.841-3.851c3.867-2.062,6.162-3.161,6.162-3.161s-0.635,0.036-1.821,0.186
				c-1.187,0.148-2.915,0.422-5.103,0.874c-2.188,0.451-4.819,1.105-7.812,2.007C118.417,70.744,117.177,71.159,115.893,71.611z"/>
			<path fill="#FFFFFF" d="M96.918,184.02c-0.508-0.983-1.079-2.046-1.699-3.208c-0.605-1.174-1.235-2.437-1.934-3.794
				c-1.372-2.697-2.837-5.762-4.365-9.106c-0.371-0.845-0.742-1.696-1.113-2.575c-0.376-0.874-0.781-1.758-1.118-2.679
				c-0.352-0.915-0.742-1.836-1.113-2.775c-0.337-0.936-0.693-1.897-1.045-2.874c-1.367-3.892-2.603-8.032-3.496-12.31
				c-0.22-1.069-0.449-2.158-0.605-3.242c-0.083-0.537-0.176-1.089-0.269-1.636c-0.083-0.539-0.132-1.099-0.195-1.646
				c-0.063-0.554-0.122-1.113-0.176-1.66c-0.039-0.549-0.078-1.099-0.103-1.66c-0.122-1.105-0.103-2.219-0.142-3.33
				c-0.015-0.559,0.02-1.113,0.029-1.67c0.029-0.549,0.029-1.11,0.063-1.67l0.132-1.66c0.034-0.554,0.103-1.101,0.181-1.65
				c0.22-2.217,0.713-4.39,1.255-6.54c0.552-2.146,1.289-4.243,2.134-6.299c0.903-2.026,1.846-4.036,2.969-5.952
				c0.283-0.483,0.576-0.947,0.864-1.424l0.444-0.708l0.459-0.688c0.317-0.456,0.605-0.928,0.928-1.374
				c0.327-0.452,0.654-0.908,0.977-1.351c0.322-0.449,0.669-0.864,1.011-1.311c0.332-0.438,0.684-0.869,1.04-1.277
				c0.352-0.422,0.703-0.842,1.055-1.267c0.366-0.413,0.728-0.823,1.084-1.224c0.518-0.576,1.05-1.115,1.577-1.662l-0.576-1.792
				c-0.22-0.711-0.454-1.419-0.679-2.134c-0.474-1.47-0.913-2.957-1.333-4.438c-0.151-0.542-0.293-1.074-0.444-1.611
				c-1.895,1.384-3.726,2.969-5.562,4.629c-1.88,1.68-3.623,3.569-5.337,5.542c-1.714,1.979-3.301,4.136-4.761,6.406
				c-1.45,2.287-2.778,4.688-3.906,7.209c-1.099,2.544-2.046,5.166-2.773,7.85c-1.387,5.383-1.987,10.969-1.689,16.364
				c0.093,1.348,0.127,2.688,0.312,4.012c0.083,0.651,0.171,1.304,0.259,1.968c0.098,0.642,0.225,1.289,0.337,1.929
				c0.132,0.651,0.22,1.294,0.366,1.916c0.146,0.633,0.288,1.265,0.435,1.875c0.259,1.26,0.649,2.469,1.006,3.67
				c1.45,4.79,3.354,9.194,5.396,13.188c2.026,4.004,4.312,7.541,6.475,10.742c0.562,0.776,1.113,1.543,1.65,2.292
				c0.542,0.745,1.06,1.484,1.621,2.144c0.557,0.696,1.074,1.362,1.597,2c0.259,0.332,0.513,0.646,0.767,0.962
				c0.249,0.312,0.522,0.601,0.771,0.898c1.035,1.167,1.963,2.272,2.871,3.271c0.928,0.974,1.768,1.862,2.549,2.658
				c0.391,0.398,0.742,0.779,1.099,1.126c0.361,0.344,0.698,0.664,1.011,0.967c0.625,0.596,1.167,1.096,1.602,1.501
				c0.884,0.799,1.348,1.229,1.348,1.229s-0.288-0.574-0.835-1.634C98.783,187.472,97.924,185.978,96.918,184.02z"/>
		</g>
	</g>
</g>
</svg>
