<?xml version="1.0" encoding="utf-8"?>
<!-- Generator: Adobe Illustrator 16.0.0, SVG Export Plug-In . SVG Version: 6.00 Build 0)  -->
<!DOCTYPE svg PUBLIC "-//W3C//DTD SVG 1.1//EN" "http://www.w3.org/Graphics/SVG/1.1/DTD/svg11.dtd">
<svg version="1.1" id="Layer_1" xmlns="http://www.w3.org/2000/svg" xmlns:xlink="http://www.w3.org/1999/xlink" x="0px" y="0px"
	 width="204.295px" height="204.046px" viewBox="0 0 204.295 204.046" enable-background="new 0 0 204.295 204.046"
	 xml:space="preserve">
<path fill="#F3901D" d="M102.176,2.023c-55.222,0-100,44.769-100,99.99c0,55.23,44.778,100.01,100,100.01
	c55.234,0,100-44.779,100-100.01C202.176,46.792,157.41,2.023,102.176,2.023z M92.903,42.908c0-4.879,5.268-8.89,10.007-8.89
	s9.993,4.011,9.993,8.89v53.334c0,4.896-5.254,8.887-9.993,8.887s-10.007-3.991-10.007-8.887V42.908z M102.176,167.352
	c-34.349,0-61.077-27.848-61.077-62.223c0-25.241,11.805-46.928,37.805-56.684v20.434c-13,8.057-20.031,21.27-20.031,36.25
	c0,24.515,19.38,44.446,43.872,44.446c24.519,0,42.699-19.932,42.699-44.446c0-14.46-6.54-27.204-19.54-35.329V48.982
	c27,9.984,37.029,31.338,37.029,56.146C162.933,139.504,136.551,167.352,102.176,167.352z"/>
</svg>
