<?xml version="1.0" encoding="utf-8"?>
<!-- Generator: Adobe Illustrator 16.0.0, SVG Export Plug-In . SVG Version: 6.00 Build 0)  -->
<!DOCTYPE svg PUBLIC "-//W3C//DTD SVG 1.1//EN" "http://www.w3.org/Graphics/SVG/1.1/DTD/svg11.dtd">
<svg version="1.1" id="Layer_1" xmlns="http://www.w3.org/2000/svg" xmlns:xlink="http://www.w3.org/1999/xlink" x="0px" y="0px"
	 width="698.965px" height="198.027px" viewBox="0 0 698.965 198.027" enable-background="new 0 0 698.965 198.027"
	 xml:space="preserve">
<g>
	<g>
		<g>
			<path fill="#555759" d="M219.434,88.099l0.021,22.704l-16.698,0.033V56.242l16.644-0.039v7.268
				c1.38-2.705,3.436-4.818,6.179-6.357c2.693-1.561,5.573-2.336,8.685-2.336c0.945,0,1.803,0.038,2.592,0.085
				c0.767,0.127,1.311,0.22,1.603,0.275l-5.447,17.083c-0.126-0.049-0.432-0.143-0.904-0.264c-0.476-0.047-1.094-0.076-1.872-0.076
				c-1.071,0-2.309,0.173-3.674,0.521c-2.449,0.721-3.675,1.564-5.011,3.281c-1.297,1.686-1.935,5.302-2.062,8.534
				C219.445,85.358,219.434,86.834,219.434,88.099z"/>
			<path fill="#555759" d="M295.838,71.16l-34.447,21.635c0.488,0.594,1.588,1.314,3.333,2.146c1.413,0.718,3.478,1.086,6.157,1.086
				c0.359,0,0.75,0,1.173,0c1.91-0.192,3.837-0.692,5.81-1.52c1.902-0.819,3.546-1.731,4.912-2.686
				c1.377-0.959,2.086-1.489,2.086-1.619l8.572,13.148c-0.797,0.602-2.158,1.495-4.143,2.68c-1.953,1.198-4.567,2.422-7.85,3.672
				c-3.342,1.242-6.854,1.91-10.561,1.979c-0.119,0-0.24,0-0.35,0c-5.371,0-10.285-1.236-14.783-3.683
				c-4.643-2.415-8.309-5.823-10.996-10.186c-2.68-4.348-4.051-9.198-4.102-14.577c0-0.121,0-0.247,0-0.371
				c0-4.647,1.062-9.059,3.222-13.233c2.204-4.246,5.271-7.728,9.196-10.457c3.957-2.757,8.365-4.378,13.255-4.92
				c1.257-0.112,2.474-0.187,3.672-0.187c3.278,0,6.374,0.539,9.304,1.594c3.881,1.578,6.98,3.438,9.316,5.648
				c2.301,2.27,4.008,4.266,5.084,5.999C294.771,69.047,295.486,70.322,295.838,71.16z M256.471,82.514l19.596-12.238
				c-0.412-0.291-1.16-0.662-2.237-1.069c-1.121-0.418-2.526-0.632-4.199-0.632c-3.7,0-6.8,1.41-9.317,4.207
				C257.752,75.637,256.471,78.878,256.471,82.514z"/>
			<path fill="#555759" d="M349.129,72.054v38.837l-15.369-0.022v-4.375c0,0.187-0.566,0.668-1.695,1.506
				c-1.201,0.907-2.716,1.721-4.57,2.419c-1.902,0.771-4.084,1.195-6.531,1.264c-0.112,0-0.252,0-0.379,0
				c-3.441,0-6.668-0.77-9.646-2.239c-3.155-1.55-5.64-3.755-7.432-6.615c-1.847-2.81-2.781-6.153-2.781-10.032
				c0-3.566,0.935-6.788,2.781-9.649c1.792-2.863,4.332-5.098,7.607-6.703c2.922-1.442,6.08-2.163,9.471-2.163
				c0.363,0,0.736,0,1.088,0c2.15,0.053,4.096,0.415,5.822,1.072c1.654,0.662,3.027,1.369,4.1,2.168l1.621,1.166
				c0-2.229-0.186-3.961-0.538-5.211c-0.55-1.977-1.597-3.455-3.133-4.464c-1.481-0.89-3.804-1.352-6.964-1.352
				c-0.188,0-0.385,0-0.545,0c-2.506,0-5.486,0.665-8.971,1.973c-3.498,1.309-5.472,2.175-5.876,2.589l3.128-15.189
				c0.115-0.127,1.286-0.415,3.469-0.902c2.231-0.48,4.463-0.9,6.711-1.267c2.215-0.354,4.379-0.561,6.451-0.607
				c0.365,0,0.717,0,1.061,0c3.586,0,6.928,0.561,10.033,1.707c3.34,1.303,6.025,3.281,8.057,5.882
				C348.117,64.474,349.129,67.865,349.129,72.054z M333.037,92.619c0-2.146-0.813-3.919-2.424-5.276
				c-1.539-1.265-3.425-1.894-5.632-1.894c-0.106,0-0.239,0-0.357,0c-2.151,0.137-3.96,0.777-5.45,1.984
				c-1.563,1.247-2.363,2.819-2.418,4.735c0,0.12,0,0.255,0,0.371c0,1.968,0.717,3.54,2.16,4.74
				c1.531,1.372,3.619,2.062,6.241,2.062c2.204,0,4.101-0.577,5.624-1.721C332.303,96.503,333.037,94.84,333.037,92.619z"/>
			<path fill="#555759" d="M359.904,110.891V38.34l17.076,0.011l-0.055,72.54H359.904z"/>
			<g>
				<path fill="#F3901D" d="M440.16,71.16l-34.459,21.635c0.486,0.594,1.586,1.314,3.322,2.146c1.426,0.718,3.488,1.086,6.182,1.086
					c0.349,0,0.736,0,1.159,0c1.892-0.192,3.843-0.692,5.815-1.52c1.896-0.819,3.54-1.731,4.914-2.686
					c1.38-0.959,2.072-1.489,2.072-1.619l8.575,13.148c-0.78,0.602-2.161,1.495-4.126,2.68c-1.962,1.198-4.598,2.422-7.868,3.672
					c-3.331,1.242-6.856,1.91-10.542,1.979c-0.127,0-0.262,0-0.363,0c-5.371,0-10.281-1.236-14.781-3.683
					c-4.633-2.415-8.294-5.823-10.987-10.186c-2.683-4.348-4.06-9.198-4.126-14.577c0-0.121,0-0.247,0-0.371
					c0-4.647,1.08-9.059,3.244-13.233c2.198-4.246,5.271-7.728,9.188-10.457c3.941-2.757,8.36-4.378,13.27-4.92
					c1.247-0.112,2.462-0.187,3.668-0.187c3.273,0,6.374,0.539,9.304,1.594c3.866,1.578,6.964,3.438,9.304,5.648
					c2.322,2.27,4.01,4.266,5.076,5.999C439.085,69.047,439.803,70.322,440.16,71.16z M400.781,82.514l19.596-12.238
					c-0.42-0.291-1.154-0.662-2.221-1.069c-1.133-0.418-2.543-0.632-4.222-0.632c-3.688,0-6.788,1.41-9.3,4.207
					C402.067,75.637,400.781,78.878,400.781,82.514z"/>
				<path fill="#F3901D" d="M443.605,56.259l19.503-0.056l8.344,13.429l8.68-13.429l19.146,0.039l-18.602,26.102l19.398,28.42
					l-20.1-0.052l-9.045-15.053l-9.236,15.012H441.52l20.11-28.327L443.605,56.259z"/>
			</g>
			<g>
				<path fill="#555759" d="M614.887,88.189l0.032,22.712l-16.702,0.024V56.327l16.639-0.014v7.245
					c1.381-2.696,3.431-4.812,6.184-6.363c2.684-1.558,5.568-2.333,8.672-2.333c0.945,0,1.806,0.033,2.607,0.088
					c0.756,0.132,1.298,0.229,1.595,0.278l-5.438,17.086c-0.135-0.047-0.435-0.148-0.916-0.261
					c-0.467-0.058-1.094-0.091-1.871-0.091c-1.078,0-2.301,0.173-3.664,0.53c-2.457,0.712-3.688,1.575-5.018,3.287
					c-1.309,1.677-1.93,5.296-2.062,8.528C614.889,85.446,614.887,86.925,614.887,88.189z"/>
				<path fill="#555759" d="M691.287,71.254l-34.441,21.643c0.488,0.583,1.591,1.303,3.325,2.142
					c1.423,0.714,3.485,1.077,6.175,1.077c0.339,0,0.74,0,1.169,0c1.891-0.182,3.837-0.689,5.804-1.509
					c1.9-0.833,3.551-1.739,4.909-2.68c1.38-0.956,2.067-1.509,2.067-1.627l8.6,13.151c-0.795,0.609-2.169,1.48-4.145,2.677
					c-1.955,1.189-4.565,2.413-7.858,3.669c-3.337,1.259-6.849,1.901-10.546,1.973c-0.134,0-0.26,0-0.362,0
					c-5.378,0-10.281-1.233-14.78-3.683c-4.637-2.421-8.309-5.815-10.988-10.177c-2.69-4.337-4.054-9.207-4.108-14.588
					c0-0.11,0-0.229,0-0.371c0-4.64,1.058-9.048,3.227-13.239c2.19-4.235,5.266-7.723,9.196-10.455
					c3.951-2.743,8.359-4.372,13.244-4.917c1.262-0.112,2.481-0.17,3.68-0.17c3.287,0,6.373,0.522,9.301,1.583
					c3.869,1.575,6.975,3.438,9.311,5.643c2.304,2.284,4.016,4.276,5.085,6.005C690.227,69.141,690.944,70.421,691.287,71.254z
					 M651.934,82.609l19.58-12.235c-0.404-0.308-1.152-0.662-2.224-1.077c-1.122-0.415-2.534-0.641-4.214-0.641
					c-3.688,0-6.793,1.41-9.313,4.222C653.212,75.733,651.934,78.969,651.934,82.609z"/>
				<path fill="#555759" d="M563.838,47.956h-5.279c-3.578,0-6.107,0.687-7.53,2.034c-1.429,1.365-2.146,3.43-2.146,6.213h10.013
					v14.303h-10.013v40.396h-17.153V70.506h-9.124l3.408-14.303h5.716c-0.07-4.248,0.562-7.868,1.869-10.877
					c1.325-3.007,3.211-5.48,5.668-7.421c2.459-1.948,5.406-3.378,8.855-4.293c3.432-0.907,7.299-1.374,11.534-1.374L563.838,47.956
					z"/>
				<polygon fill="#555759" points="585.569,110.827 568.117,110.827 568.117,56.363 585.569,56.245 				"/>
			</g>
		</g>
		<path fill="#F3901D" d="M584.613,40.008c0,4.281-3.479,7.764-7.768,7.764c-4.287,0-7.77-3.482-7.77-7.764
			c0-4.29,3.482-7.77,7.77-7.77C581.134,32.238,584.613,35.718,584.613,40.008z"/>
	</g>
	<g>
		<path fill="#555759" d="M95.5,35.094c-2.996,0.217-2.243,5.761-2.243,5.761l-13.676,1.52c0.847-5.903-0.682-6.857-1.572-6.939
			c-38.208,5.024-67.711,37.696-67.711,77.267c0,43.062,34.901,77.971,77.957,77.971c43.058,0,77.96-34.909,77.96-77.971
			C166.215,72.1,135.164,38.752,95.5,35.094z"/>
		<g>
			<g>
				<g>
					<path fill="#F3901D" d="M104.855,10.309c0,0-0.644,0.357-1.688,1.16c-1.051,0.811-2.504,2.083-3.978,3.883
						c-0.733,0.904-1.476,1.933-2.157,3.106c-0.662,1.19-1.333,2.454-1.869,3.899c-1.086,2.845-1.814,6.17-2.064,9.872
						c-0.252,3.711-0.055,7.786,0.553,12.123c0.61,4.329,1.607,8.899,2.886,13.641c1.292,4.724,2.872,9.605,4.626,14.555
						c0.924,2.523,1.855,5.082,2.789,7.638c0.473,1.33,0.962,2.631,1.427,3.982c0.459,1.394,0.912,2.779,1.377,4.181
						c1.767,5.557,3.319,11.158,4.543,16.833c1.206,5.679,2.081,11.387,2.503,17.029c0.413,5.64,0.355,11.222-0.332,16.551
						c-0.09,0.659-0.178,1.324-0.264,1.968c-0.107,0.654-0.239,1.308-0.354,1.951c-0.226,1.28-0.552,2.551-0.844,3.773
						c-0.668,2.468-1.424,4.81-2.351,6.978c-1.797,4.362-4.094,7.977-6.282,10.903c-2.206,2.916-4.315,5.184-6.085,7.006
						c-0.879,0.912-1.668,1.712-2.38,2.401c-0.695,0.677-1.303,1.262-1.792,1.721c-0.984,0.957-1.527,1.448-1.527,1.448
						s0.187-0.717,0.582-2.017c0.398-1.303,1.022-3.205,1.869-5.568c0.813-2.366,1.852-5.181,2.792-8.366
						c0.913-3.183,1.775-6.673,2.171-10.472c0.236-1.888,0.314-3.872,0.363-5.903c-0.027-1.022,0.027-2.044-0.055-3.113
						c-0.02-0.515-0.041-1.045-0.066-1.578c-0.044-0.538-0.076-1.077-0.118-1.624c-0.335-4.351-1.077-8.974-2.091-13.785
						c-1.01-4.802-2.299-9.787-3.722-14.875c-1.433-5.076-3.046-10.289-4.678-15.445l-1.226-3.84
						c-0.438-1.338-0.875-2.668-1.306-3.998l-0.657-1.984c-0.209-0.682-0.423-1.353-0.635-2.023
						c-0.447-1.391-0.859-2.801-1.259-4.188c-0.794-2.804-1.492-5.628-2.104-8.445c-0.58-2.823-1.08-5.643-1.457-8.451
						c-0.729-5.626-0.979-11.202-0.613-16.534c0.355-5.335,1.363-10.438,3.023-14.965c1.66-4.508,3.984-8.416,6.607-11.326
						c2.613-2.933,5.428-4.895,7.863-6.071c1.217-0.599,2.332-1.027,3.33-1.303c0.981-0.296,1.842-0.47,2.529-0.574
						C104.123,10.26,104.855,10.309,104.855,10.309z"/>
				</g>
				<g>
					<path fill="#FFFFFF" d="M101.82,65.092c0.506,1.566,1.022,3.155,1.572,4.738c1.24-0.78,2.424-1.501,3.557-2.166
						c2.451-1.445,4.639-2.641,6.453-3.622c3.649-1.96,5.811-3.001,5.811-3.001s-0.6,0.041-1.716,0.179s-2.751,0.396-4.81,0.827
						c-2.066,0.418-4.551,1.047-7.368,1.891C104.203,64.278,103.035,64.666,101.82,65.092z"/>
					<path fill="#FFFFFF" d="M83.924,171.112c-0.465-0.921-1.015-1.929-1.6-3.026c-0.561-1.099-1.172-2.3-1.816-3.58
						c-1.295-2.54-2.684-5.418-4.123-8.584c-0.341-0.797-0.698-1.604-1.047-2.435c-0.363-0.825-0.734-1.644-1.059-2.523
						c-0.332-0.852-0.701-1.729-1.047-2.608c-0.324-0.9-0.644-1.803-0.979-2.709c-1.301-3.67-2.457-7.586-3.304-11.612
						c-0.203-1.02-0.412-2.039-0.565-3.056c-0.092-0.52-0.168-1.036-0.256-1.545c-0.086-0.517-0.129-1.041-0.195-1.561
						c-0.05-0.522-0.104-1.037-0.165-1.553c-0.033-0.522-0.061-1.056-0.093-1.567c-0.107-1.042-0.094-2.104-0.125-3.146
						c-0.023-0.528,0.012-1.056,0.022-1.583c0.02-0.517,0.02-1.039,0.061-1.572l0.124-1.559c0.033-0.524,0.094-1.044,0.168-1.569
						c0.203-2.091,0.673-4.136,1.184-6.167c0.518-2.02,1.215-4.004,2.012-5.934c0.853-1.907,1.746-3.812,2.807-5.629
						c0.256-0.442,0.544-0.879,0.816-1.319l0.412-0.673l0.438-0.651c0.299-0.438,0.562-0.888,0.871-1.306
						c0.312-0.42,0.615-0.847,0.918-1.256c0.302-0.439,0.643-0.833,0.961-1.236c0.311-0.424,0.63-0.819,0.979-1.227
						c0.324-0.387,0.668-0.783,0.995-1.185c0.341-0.382,0.687-0.772,1.028-1.154c0.483-0.53,0.98-1.058,1.484-1.571l-0.553-1.674
						c-0.212-0.682-0.426-1.353-0.635-2.023c-0.451-1.391-0.855-2.801-1.262-4.188c-0.141-0.506-0.275-1.006-0.41-1.515
						c-1.803,1.301-3.518,2.804-5.254,4.376c-1.754,1.577-3.422,3.351-5.029,5.214c-1.617,1.86-3.117,3.896-4.497,6.043
						c-1.36,2.158-2.628,4.422-3.688,6.789c-1.021,2.41-1.918,4.884-2.611,7.409c-1.299,5.082-1.879,10.348-1.594,15.435
						c0.083,1.262,0.133,2.543,0.303,3.773c0.077,0.627,0.159,1.251,0.236,1.872c0.1,0.61,0.215,1.218,0.324,1.819
						c0.118,0.61,0.209,1.223,0.344,1.806c0.137,0.604,0.271,1.182,0.415,1.772c0.245,1.185,0.61,2.32,0.954,3.455
						c1.359,4.529,3.152,8.665,5.081,12.444c1.907,3.771,4.067,7.115,6.102,10.119c0.533,0.742,1.052,1.462,1.566,2.172
						c0.509,0.706,1.001,1.391,1.522,2.028c0.514,0.64,1.022,1.275,1.501,1.888c0.247,0.306,0.483,0.599,0.72,0.898
						c0.25,0.286,0.5,0.566,0.73,0.847c0.974,1.11,1.848,2.144,2.711,3.084c0.877,0.924,1.668,1.764,2.402,2.512
						c0.365,0.374,0.714,0.739,1.041,1.061c0.338,0.327,0.656,0.633,0.959,0.902c0.586,0.571,1.088,1.035,1.509,1.418
						c0.821,0.756,1.272,1.159,1.272,1.159s-0.274-0.527-0.797-1.53C85.693,174.372,84.88,172.959,83.924,171.112z"/>
				</g>
			</g>
		</g>
	</g>
	<g>
		<path fill="#747677" d="M201.157,128.576l6.315-1.056v17.367c3.155-3.749,6.643-5.194,11.51-5.194
			c9.213,0,16.908,7.695,16.908,17.498c0,10.593-7.893,17.898-18.221,17.898c-8.49,0-16.645-6.514-16.513-15.529V128.576z
			 M218.389,169.166c6.448,0,11.187-5.395,11.187-11.776c0-6.447-4.802-11.773-11.187-11.773c-6.444,0-11.575,5.26-11.575,11.773
			C206.813,163.835,211.875,169.166,218.389,169.166z"/>
		<path fill="#747677" d="M271.105,139.693v34.341l-6.184,1.056v-4.939h-0.133c-2.041,3.425-6.054,4.939-10,4.939
			c-6.777,0-13.094-3.225-13.094-11.184v-23.16l6.316-1.053v23.289c0,4.934,3.486,6.514,7.367,6.514c5.002,0,9.41-3.025,9.41-10.199
			v-18.551L271.105,139.693z"/>
		<path fill="#747677" d="M280.903,165.811c1.907,2.234,3.82,3.686,6.976,3.686c2.501,0,5.593-1.253,5.593-4.21
			c0-8.619-16.383-2.636-16.383-15.066c0-6.185,4.735-10.526,10.79-10.526c4.67,0,7.434,1.38,10.787,4.67l-3.748,4.146
			c-1.971-2.042-3.482-3.227-6.383-3.227c-2.693,0-5.125,0.924-5.125,4.084c0,7.498,16.383,1.908,16.383,15.127
			c0,6.451-5.4,10.596-11.519,10.596c-4.933,0-8.685-1.649-11.71-5.594L280.903,165.811z"/>
		<path fill="#747677" d="M308.662,126.996l4.21,4.996l-4.075,4.937l-4.211-4.937L308.662,126.996z M305.572,175.09v-34.344
			l6.316-1.053v34.341L305.572,175.09z"/>
		<path fill="#747677" d="M319.869,175.09v-34.344l6.311-1.053v4.934h0.141c1.904-3.42,5.911-4.934,9.866-4.934
			c6.772,0,13.091,3.224,13.091,11.582v22.759l-6.318,1.056v-23.293c0-4.934-3.482-6.514-7.369-6.514
			c-4.996,0-9.41,3.029-9.41,10.202v18.549L319.869,175.09z"/>
		<path fill="#747677" d="M363.367,163.771c2.105,3.354,5.195,5.395,9.145,5.395c4.537,0,8.951-3.092,12.367-5.793l1.254,6.648
			c-4.145,2.894-8.028,5.068-13.23,5.068c-10.719,0-17.694-8.028-17.694-18.621c0-9.08,7.761-16.775,16.644-16.775
			c7.105,0,11.315,3.224,14.936,9.144L363.367,163.771z M378.104,147.787c-1.451-1.646-3.554-2.171-5.791-2.171
			c-7.167,0-11.581,5.785-10.79,12.697L378.104,147.787z"/>
		<path fill="#747677" d="M394.743,165.811c1.907,2.234,3.817,3.686,6.972,3.686c2.504,0,5.594-1.253,5.594-4.21
			c0-8.619-16.386-2.636-16.386-15.066c0-6.185,4.741-10.526,10.792-10.526c4.673,0,7.432,1.38,10.791,4.67l-3.749,4.146
			c-1.979-2.042-3.487-3.227-6.382-3.227c-2.699,0-5.131,0.924-5.131,4.084c0,7.498,16.383,1.908,16.383,15.127
			c0,6.451-5.4,10.596-11.519,10.596c-4.928,0-8.679-1.649-11.71-5.594L394.743,165.811z"/>
		<path fill="#747677" d="M420.75,165.811c1.908,2.234,3.815,3.686,6.977,3.686c2.495,0,5.59-1.253,5.59-4.21
			c0-8.619-16.381-2.636-16.381-15.066c0-6.185,4.736-10.526,10.791-10.526c4.669,0,7.434,1.38,10.787,4.67l-3.749,4.146
			c-1.974-2.042-3.487-3.227-6.388-3.227c-2.693,0-5.131,0.924-5.131,4.084c0,7.498,16.386,1.908,16.386,15.127
			c0,6.451-5.392,10.596-11.511,10.596c-4.938,0-8.689-1.649-11.71-5.594L420.75,165.811z"/>
		<path fill="#747677" d="M483.141,175.09v-4.606h-0.135c-1.904,3.748-5.848,4.606-9.866,4.606c-7.497,0-12.362-5.594-12.362-12.965
			c0-7.365,6.514-11.773,13.286-11.773c3.16,0,6.249,0.924,8.421,3.227v-2.567c0-4.938-2.957-5.395-7.898-5.395
			c-2.763,0-6.311,0.192-9.732,1.907l1.709-6.514c2.304-0.462,5.989-1.316,9.078-1.316c8.954,0,13.165,3.551,13.165,12.502v21.839
			L483.141,175.09z M467.088,162.125c0,4.673,2.699,7.041,7.242,7.041c4.34,0,8.154-1.646,8.154-7.041
			c0-4.21-3.752-6.181-7.695-6.181C471.04,155.944,467.088,157.788,467.088,162.125z"/>
		<path fill="#747677" d="M519.928,148.708c-2.834-2.105-4.672-3.092-8.421-3.092c-6.388,0-10.724,5.722-10.724,11.84
			c0,5.988,5.062,11.71,10.854,11.71c3.551,0,5.916-1.709,8.223-3.949l4.076,4.147c-3.354,3.485-7.564,5.726-12.5,5.726
			c-8.812,0-16.975-7.633-16.975-17.436c0-9.804,6.977-17.961,16.975-17.961c4.604,0,8.814,1.644,12.307,4.67L519.928,148.708z"/>
		<path fill="#747677" d="M551.704,148.708c-2.828-2.105-4.672-3.092-8.421-3.092c-6.385,0-10.725,5.722-10.725,11.84
			c0,5.988,5.068,11.71,10.854,11.71c3.557,0,5.926-1.709,8.229-3.949l4.076,4.147c-3.358,3.485-7.568,5.726-12.496,5.726
			c-8.82,0-16.977-7.633-16.977-17.436c0-9.804,6.969-17.961,16.977-17.961c4.6,0,8.811,1.644,12.299,4.67L551.704,148.708z"/>
		<path fill="#747677" d="M594.271,157.39c0,10.001-8.287,17.7-18.156,17.7c-9.872,0-18.09-7.699-18.09-17.7
			s8.218-17.696,18.09-17.696C585.984,139.693,594.271,147.389,594.271,157.39z M576.115,145.616
			c-6.582,0-11.779,5.326-11.779,11.773c0,6.445,5.197,11.776,11.779,11.776c6.643,0,11.846-5.331,11.846-11.776
			C587.961,150.942,582.758,145.616,576.115,145.616z"/>
		<path fill="#747677" d="M629.359,139.693v34.341l-6.189,1.056v-4.939h-0.133c-2.035,3.425-6.054,4.939-9.995,4.939
			c-6.782,0-13.093-3.225-13.093-11.184v-23.16l6.311-1.053v23.289c0,4.934,3.492,6.514,7.371,6.514
			c5.002,0,9.406-3.025,9.406-10.199v-18.551L629.359,139.693z"/>
		<path fill="#747677" d="M637.131,175.09v-34.344l6.316-1.053v4.934h0.129c1.913-3.42,5.923-4.934,9.872-4.934
			c6.777,0,13.093,3.224,13.093,11.582v22.759l-6.315,1.056v-23.293c0-4.934-3.487-6.514-7.371-6.514
			c-4.999,0-9.407,3.029-9.407,10.202v18.549L637.131,175.09z"/>
		<path fill="#747677" d="M690.609,146.339h-8.883v17.631c0,4.21,1.318,5.526,5.926,5.526c1.445,0,2.827-0.267,4.21-0.396
			l-1.118,5.722c-1.248,0.133-2.369,0.268-5.062,0.268c-5.863,0-10.266-4.211-10.266-10.199v-18.552h-5.2l2.231-5.593h2.969v-8.157
			l6.311-1.518v9.675h8.883V146.339z"/>
	</g>
</g>
</svg>
