<?xml version="1.0" encoding="utf-8"?>
<!-- Generator: Adobe Illustrator 16.0.0, SVG Export Plug-In . SVG Version: 6.00 Build 0)  -->
<!DOCTYPE svg PUBLIC "-//W3C//DTD SVG 1.1//EN" "http://www.w3.org/Graphics/SVG/1.1/DTD/svg11.dtd">
<svg version="1.1" xmlns="http://www.w3.org/2000/svg" xmlns:xlink="http://www.w3.org/1999/xlink" x="0px" y="0px" width="90px"
	 height="90px" viewBox="0 0 90 90" enable-background="new 0 0 90 90" xml:space="preserve">
<g id="STRUCTURE">
</g>
<g id="REBATE">
	<g>
		<polygon fill="#F18F00" points="42.69,58.452 58.639,34.803 40.112,34.803 24.176,58.452 		"/>
		<path fill="#F18F00" d="M44.76,2c-23.747,0-43,19.259-43,43c0,23.742,19.253,43,43,43c23.742,0,43-19.258,43-43
			C87.76,21.259,68.502,2,44.76,2z M71.644,43.402h-7.399L50.148,63.629l-2.352,3.424H21.072l2.36-2.15h22.621l14.097-21.5h-3.956
			l-9.406,13.646l-2.352,3.554H17.713l2.36-3.554l9.397-13.646H17.894v-15.05h53.75V43.402z"/>
	</g>
</g>
</svg>
