<?xml version="1.0" encoding="utf-8"?>
<!-- Generator: Adobe Illustrator 16.0.0, SVG Export Plug-In . SVG Version: 6.00 Build 0)  -->
<!DOCTYPE svg PUBLIC "-//W3C//DTD SVG 1.1//EN" "http://www.w3.org/Graphics/SVG/1.1/DTD/svg11.dtd">
<svg version="1.1" id="Layer_1" xmlns="http://www.w3.org/2000/svg" xmlns:xlink="http://www.w3.org/1999/xlink" x="0px" y="0px"
	 width="2757.92px" height="247.34px" viewBox="0 0 2757.92 247.34" enable-background="new 0 0 2757.92 247.34"
	 xml:space="preserve">
<g>
	<g>
		<g>
			<path fill="#555759" d="M321.342,153.351l0.049,52.221l-38.406,0.075V80.079l38.281-0.09v16.715
				c3.172-6.221,7.901-11.081,14.211-14.621c6.195-3.59,12.818-5.372,19.975-5.372c2.174,0,4.146,0.087,5.962,0.194
				c1.762,0.293,3.014,0.506,3.686,0.634l-12.53,39.292c-0.288-0.112-0.993-0.329-2.079-0.607c-1.094-0.107-2.517-0.176-4.307-0.176
				c-2.463,0-5.309,0.398-8.449,1.201c-5.633,1.657-8.452,3.598-11.525,7.547c-2.982,3.876-4.45,12.193-4.741,19.628
				C321.368,147.047,321.342,150.441,321.342,153.351z"/>
			<path fill="#555759" d="M497.073,114.392l-79.23,49.761c1.123,1.365,3.654,3.022,7.667,4.937c3.25,1.65,7.998,2.498,14.162,2.498
				c0.825,0,1.724,0,2.698,0c4.392-0.442,8.822-1.593,13.361-3.495c4.375-1.886,8.156-3.982,11.298-6.177
				c3.167-2.207,4.797-3.426,4.797-3.725l19.718,30.242c-1.834,1.383-4.965,3.439-9.529,6.162
				c-4.491,2.756-10.506,5.571-18.055,8.446c-7.686,2.857-15.763,4.394-24.288,4.551c-0.274,0-0.554,0-0.805,0
				c-12.354,0-23.656-2.844-34.001-8.47c-10.679-5.555-19.111-13.395-25.291-23.427c-6.164-10.001-9.318-21.157-9.435-33.528
				c0-0.278,0-0.568,0-0.854c0-10.689,2.44-20.836,7.409-30.438c5.07-9.767,12.125-17.773,21.152-24.051
				c9.102-6.341,19.24-10.07,30.485-11.316c2.892-0.259,5.689-0.429,8.446-0.429c7.541,0,14.66,1.239,21.399,3.666
				c8.926,3.629,16.056,7.907,21.428,12.991c5.292,5.22,9.218,9.811,11.692,13.797C494.621,109.53,496.264,112.465,497.073,114.392z
				 M406.527,140.505l45.07-28.148c-0.948-0.67-2.668-1.523-5.146-2.459c-2.579-0.963-5.811-1.454-9.658-1.454
				c-8.51,0-15.641,3.243-21.431,9.676C409.476,124.688,406.527,132.143,406.527,140.505z"/>
			<path fill="#555759" d="M619.643,116.446v89.326l-35.349-0.052v-10.063c0,0.43-1.303,1.538-3.898,3.465
				c-2.764,2.086-6.246,3.957-10.513,5.562c-4.375,1.774-9.394,2.75-15.022,2.907c-0.258,0-0.578,0-0.87,0
				c-7.915,0-15.337-1.77-22.188-5.151c-7.256-3.563-12.971-8.636-17.092-15.214c-4.248-6.462-6.396-14.153-6.396-23.074
				c0-8.203,2.148-15.613,6.396-22.194c4.121-6.586,9.963-11.725,17.497-15.418c6.721-3.316,13.983-4.975,21.783-4.975
				c0.836,0,1.692,0,2.502,0c4.945,0.121,9.419,0.954,13.391,2.467c3.805,1.522,6.964,3.148,9.43,4.985l3.728,2.683
				c0-5.129-0.426-9.111-1.236-11.985c-1.265-4.546-3.673-7.946-7.206-10.267c-3.407-2.047-8.748-3.109-16.017-3.109
				c-0.432,0-0.885,0-1.254,0c-5.764,0-12.619,1.529-20.633,4.537c-8.045,3.01-12.585,5.002-13.515,5.955l7.193-34.936
				c0.266-0.293,2.958-0.956,7.979-2.076c5.133-1.105,10.264-2.071,15.434-2.914c5.096-0.814,10.072-1.289,14.838-1.396
				c0.842,0,1.65,0,2.44,0c8.248,0,15.934,1.289,23.077,3.926c7.682,2.997,13.859,7.547,18.529,13.529
				C617.316,99.012,619.643,106.812,619.643,116.446z M582.632,163.747c0-4.937-1.87-9.013-5.575-12.135
				c-3.54-2.909-7.876-4.356-12.953-4.356c-0.245,0-0.55,0-0.821,0c-4.948,0.314-9.109,1.789-12.536,4.565
				c-3.596,2.868-5.435,6.484-5.562,10.891c0,0.277,0,0.586,0,0.854c0,4.526,1.648,8.143,4.968,10.903
				c3.523,3.155,8.325,4.74,14.355,4.74c5.069,0,9.433-1.327,12.937-3.956C580.942,172.68,582.632,168.855,582.632,163.747z"/>
			<path fill="#555759" d="M644.427,205.772V38.903l39.277,0.025l-0.127,166.844H644.427z"/>
			<g>
				<path fill="#F3901D" d="M829.019,114.392l-79.258,49.761c1.119,1.365,3.647,3.022,7.643,4.937
					c3.277,1.65,8.022,2.498,14.217,2.498c0.802,0,1.693,0,2.666,0c4.352-0.442,8.839-1.593,13.376-3.495
					c4.362-1.886,8.142-3.982,11.303-6.177c3.174-2.207,4.767-3.426,4.767-3.725l19.723,30.242c-1.794,1.383-4.972,3.439-9.49,6.162
					c-4.512,2.756-10.574,5.571-18.097,8.446c-7.661,2.857-15.771,4.394-24.247,4.551c-0.292,0-0.602,0-0.835,0
					c-12.353,0-23.647-2.844-33.997-8.47c-10.656-5.555-19.077-13.395-25.271-23.427c-6.171-10.001-9.338-21.157-9.491-33.528
					c0-0.278,0-0.568,0-0.854c0-10.689,2.484-20.836,7.461-30.438c5.059-9.767,12.125-17.773,21.133-24.051
					c9.064-6.341,19.229-10.07,30.521-11.316c2.868-0.259,5.662-0.429,8.437-0.429c7.528,0,14.659,1.239,21.398,3.666
					c8.893,3.629,16.017,7.907,21.398,12.991c5.342,5.22,9.222,9.811,11.675,13.797C826.545,109.53,828.196,112.465,829.019,114.392
					z M738.445,140.505l45.07-28.148c-0.966-0.67-2.655-1.523-5.108-2.459c-2.604-0.963-5.848-1.454-9.709-1.454
					c-8.484,0-15.612,3.243-21.39,9.676C741.403,124.688,738.445,132.143,738.445,140.505z"/>
				<path fill="#F3901D" d="M836.941,80.118l44.858-0.129l19.189,30.887l19.965-30.887l44.035,0.09l-42.785,60.035l44.617,65.366
					l-46.229-0.118l-20.804-34.623l-21.243,34.527h-46.4l46.255-65.152L836.941,80.118z"/>
			</g>
			<g>
				<path fill="#555759" d="M1230.894,153.56l0.073,52.238l-38.415,0.056V80.275l38.27-0.032v16.664
					c3.176-6.202,7.891-11.068,14.223-14.636c6.172-3.582,12.809-5.366,19.944-5.366c2.175,0,4.154,0.076,5.998,0.203
					c1.738,0.303,2.985,0.524,3.669,0.64l-12.509,39.298c-0.311-0.107-1.001-0.341-2.107-0.6c-1.074-0.133-2.516-0.209-4.305-0.209
					c-2.479,0-5.291,0.397-8.426,1.219c-5.651,1.639-8.483,3.624-11.542,7.562c-3.01,3.856-4.438,12.181-4.743,19.615
					C1230.897,147.25,1230.894,150.65,1230.894,153.56z"/>
				<path fill="#555759" d="M1406.615,114.606l-79.215,49.779c1.123,1.341,3.658,2.995,7.648,4.925
					c3.271,1.643,8.016,2.479,14.201,2.479c0.78,0,1.702,0,2.689,0c4.349-0.418,8.823-1.586,13.348-3.471
					c4.371-1.916,8.168-4,11.291-6.164c3.175-2.198,4.756-3.47,4.756-3.741l19.78,30.249c-1.829,1.4-4.99,3.404-9.533,6.156
					c-4.498,2.735-10.501,5.55-18.074,8.438c-7.676,2.896-15.754,4.373-24.257,4.537c-0.308,0-0.598,0-0.833,0
					c-12.37,0-23.647-2.837-33.995-8.47c-10.665-5.568-19.11-13.376-25.273-23.407c-6.188-9.975-9.323-21.176-9.448-33.553
					c0-0.254,0-0.525,0-0.854c0-10.671,2.432-20.81,7.42-30.45c5.039-9.742,12.112-17.763,21.152-24.047
					c9.087-6.311,19.228-10.057,30.462-11.31c2.901-0.258,5.708-0.391,8.462-0.391c7.562,0,14.659,1.201,21.394,3.642
					c8.898,3.622,16.041,7.907,21.413,12.977c5.3,5.254,9.237,9.836,11.696,13.812
					C1404.177,109.746,1405.828,112.69,1406.615,114.606z M1316.103,140.725l45.034-28.142c-0.931-0.708-2.651-1.522-5.114-2.478
					c-2.582-0.954-5.829-1.474-9.692-1.474c-8.48,0-15.625,3.243-21.421,9.711C1319.043,124.91,1316.103,132.351,1316.103,140.725z"
					/>
				<path fill="#555759" d="M1113.48,61.021h-12.144c-8.229,0-14.047,1.58-17.32,4.68c-3.285,3.139-4.937,7.888-4.937,14.289h23.029
					v32.896h-23.029v92.912h-39.453v-92.912h-20.985l7.84-32.896h13.146c-0.162-9.77,1.292-18.097,4.3-25.017
					c3.049-6.916,7.384-12.605,13.036-17.069c5.655-4.48,12.435-7.768,20.367-9.873c7.894-2.088,16.788-3.16,26.529-3.16
					L1113.48,61.021z"/>
				<polygon fill="#555759" points="1163.463,205.626 1123.322,205.626 1123.322,80.358 1163.463,80.086 				"/>
			</g>
		</g>
		<path fill="#F3901D" d="M1161.263,42.739c0,9.848-8.002,17.857-17.864,17.857c-9.861,0-17.87-8.01-17.87-17.857
			c0-9.866,8.009-17.869,17.87-17.869C1153.261,24.87,1161.263,32.873,1161.263,42.739z"/>
	</g>
	<g>
		<path fill="#555759" d="M152.755,48.358c-3.378,0.244-2.529,6.495-2.529,6.495l-15.42,1.714c0.955-6.656-0.768-7.732-1.772-7.825
			c-43.08,5.665-76.345,42.503-76.345,87.119c0,48.552,39.353,87.912,87.897,87.912c48.548,0,87.9-39.36,87.9-87.912
			C232.486,90.082,197.476,52.483,152.755,48.358z"/>
		<g>
			<g>
				<g>
					<path fill="#F3901D" d="M163.303,20.412c0,0-0.726,0.404-1.902,1.31c-1.185,0.913-2.822,2.348-4.485,4.377
						c-0.826,1.02-1.663,2.18-2.432,3.503c-0.747,1.342-1.503,2.767-2.107,4.396c-1.225,3.207-2.046,6.956-2.328,11.13
						c-0.284,4.185-0.061,8.779,0.623,13.67c0.689,4.881,1.812,10.033,3.254,15.38c1.457,5.325,3.239,10.83,5.216,16.41
						c1.042,2.845,2.093,5.729,3.146,8.612c0.532,1.499,1.084,2.966,1.608,4.489c0.518,1.571,1.028,3.134,1.553,4.714
						c1.991,6.266,3.743,12.581,5.122,18.979c1.359,6.402,2.346,12.839,2.822,19.2c0.466,6.358,0.4,12.652-0.375,18.662
						c-0.102,0.742-0.2,1.492-0.297,2.218c-0.121,0.738-0.27,1.475-0.4,2.2c-0.254,1.443-0.622,2.876-0.951,4.255
						c-0.753,2.782-1.604,5.422-2.65,7.866c-2.025,4.919-4.615,8.994-7.083,12.294c-2.487,3.288-4.865,5.845-6.86,7.899
						c-0.99,1.028-1.881,1.931-2.684,2.707c-0.784,0.763-1.469,1.423-2.021,1.94c-1.109,1.079-1.723,1.633-1.723,1.633
						s0.211-0.809,0.657-2.273c0.448-1.469,1.152-3.614,2.107-6.278c0.917-2.669,2.087-5.841,3.147-9.433
						c1.03-3.589,2.002-7.524,2.448-11.808c0.266-2.128,0.354-4.365,0.408-6.656c-0.03-1.152,0.032-2.304-0.061-3.51
						c-0.021-0.58-0.046-1.178-0.074-1.779c-0.051-0.606-0.086-1.215-0.135-1.831c-0.377-4.905-1.214-10.118-2.357-15.543
						c-1.138-5.414-2.591-11.035-4.196-16.771c-1.614-5.724-3.433-11.602-5.273-17.415l-1.382-4.329
						c-0.492-1.509-0.986-3.009-1.472-4.508l-0.741-2.237c-0.235-0.769-0.477-1.525-0.716-2.281
						c-0.505-1.569-0.969-3.159-1.419-4.723c-0.896-3.162-1.684-6.346-2.373-9.522c-0.654-3.183-1.218-6.361-1.643-9.529
						c-0.822-6.343-1.104-12.63-0.692-18.643c0.401-6.015,1.537-11.769,3.409-16.872c1.872-5.083,4.492-9.489,7.451-12.771
						c2.945-3.307,6.119-5.519,8.864-6.846c1.372-0.675,2.63-1.158,3.755-1.469c1.107-0.334,2.078-0.529,2.852-0.647
						C162.478,20.357,163.303,20.412,163.303,20.412z"/>
				</g>
				<g>
					<path fill="#FFFFFF" d="M159.881,82.181c0.571,1.766,1.153,3.559,1.772,5.343c1.398-0.879,2.733-1.692,4.011-2.442
						c2.764-1.629,5.23-2.977,7.276-4.083c4.114-2.21,6.551-3.385,6.551-3.385s-0.676,0.047-1.935,0.202s-3.103,0.446-5.423,0.933
						c-2.33,0.471-5.131,1.18-8.309,2.131C162.567,81.264,161.251,81.701,159.881,82.181z"/>
					<path fill="#FFFFFF" d="M139.702,201.719c-0.523-1.037-1.143-2.174-1.803-3.411c-0.632-1.238-1.321-2.594-2.048-4.037
						c-1.46-2.863-3.026-6.108-4.649-9.679c-0.384-0.897-0.787-1.809-1.18-2.744c-0.41-0.931-0.829-1.854-1.193-2.846
						c-0.375-0.959-0.791-1.948-1.181-2.94c-0.366-1.015-0.727-2.032-1.104-3.055c-1.467-4.138-2.771-8.553-3.726-13.093
						c-0.229-1.149-0.464-2.299-0.637-3.445c-0.104-0.586-0.189-1.168-0.289-1.742c-0.097-0.582-0.145-1.173-0.221-1.76
						c-0.055-0.588-0.117-1.169-0.186-1.75c-0.037-0.59-0.067-1.19-0.104-1.768c-0.121-1.175-0.106-2.373-0.141-3.548
						c-0.026-0.596,0.013-1.19,0.025-1.784c0.021-0.583,0.021-1.172,0.068-1.773l0.139-1.757c0.038-0.592,0.106-1.177,0.19-1.77
						c0.229-2.357,0.758-4.663,1.334-6.953c0.584-2.277,1.369-4.515,2.269-6.69c0.961-2.15,1.968-4.299,3.165-6.347
						c0.288-0.499,0.613-0.991,0.92-1.487l0.465-0.759l0.493-0.734c0.337-0.493,0.634-1.001,0.981-1.473
						c0.353-0.473,0.694-0.954,1.035-1.416c0.34-0.495,0.725-0.938,1.084-1.394c0.35-0.479,0.711-0.924,1.104-1.383
						c0.365-0.436,0.752-0.884,1.122-1.336c0.384-0.431,0.773-0.871,1.159-1.301c0.545-0.598,1.105-1.192,1.674-1.771l-0.624-1.888
						c-0.239-0.769-0.479-1.525-0.715-2.281c-0.509-1.569-0.965-3.159-1.423-4.723c-0.159-0.57-0.311-1.135-0.463-1.708
						c-2.032,1.467-3.965,3.162-5.923,4.934c-1.979,1.778-3.858,3.778-5.671,5.879c-1.824,2.098-3.515,4.394-5.071,6.813
						c-1.533,2.434-2.962,4.986-4.158,7.655c-1.151,2.717-2.162,5.506-2.944,8.354c-1.465,5.729-2.119,11.667-1.797,17.402
						c0.094,1.422,0.15,2.867,0.341,4.255c0.087,0.707,0.181,1.41,0.267,2.11c0.113,0.688,0.242,1.373,0.366,2.051
						c0.133,0.689,0.235,1.38,0.388,2.037c0.154,0.682,0.305,1.332,0.468,1.998c0.276,1.336,0.688,2.616,1.075,3.896
						c1.533,5.106,3.555,9.771,5.729,14.031c2.15,4.251,4.587,8.022,6.881,11.409c0.601,0.837,1.186,1.647,1.766,2.449
						c0.573,0.796,1.128,1.567,1.717,2.286c0.579,0.722,1.152,1.438,1.691,2.129c0.279,0.344,0.546,0.675,0.812,1.014
						c0.282,0.321,0.564,0.639,0.823,0.954c1.099,1.252,2.084,2.416,3.058,3.477c0.989,1.042,1.88,1.989,2.709,2.833
						c0.411,0.421,0.804,0.833,1.174,1.195c0.38,0.369,0.739,0.713,1.081,1.018c0.66,0.644,1.227,1.167,1.701,1.599
						c0.926,0.852,1.435,1.307,1.435,1.307s-0.31-0.594-0.897-1.725C141.698,205.396,140.78,203.802,139.702,201.719z"/>
				</g>
			</g>
		</g>
	</g>
	<g>
		<path fill="#747677" d="M1494.383,83.923l16.006-2.676v44.017c7.997-9.502,16.836-13.164,29.172-13.164
			c23.349,0,42.853,19.502,42.853,44.348c0,26.846-20.003,45.362-46.18,45.362c-21.517,0-42.184-16.509-41.851-39.358V83.923z
			 M1538.056,186.797c16.343,0,28.352-13.672,28.352-29.848c0-16.34-12.171-29.84-28.352-29.84
			c-16.333,0-29.338,13.331-29.338,29.84C1508.718,173.285,1521.547,186.797,1538.056,186.797z"/>
		<path fill="#747677" d="M1671.662,112.1v87.034l-15.671,2.676v-12.52h-0.335c-5.174,8.682-15.344,12.52-25.346,12.52
			c-17.176,0-33.186-8.172-33.186-28.344v-58.699l16.01-2.667v59.024c0,12.503,8.834,16.509,18.67,16.509
			c12.677,0,23.852-7.668,23.852-25.85v-47.017L1671.662,112.1z"/>
		<path fill="#747677" d="M1696.495,178.293c4.835,5.661,9.683,9.34,17.679,9.34c6.34,0,14.176-3.175,14.176-10.67
			c0-21.845-41.522-6.68-41.522-38.184c0-15.676,12.003-26.68,27.347-26.68c11.837,0,18.841,3.496,27.341,11.834l-9.501,10.51
			c-4.994-5.176-8.824-8.178-16.176-8.178c-6.826,0-12.988,2.343-12.988,10.352c0,19.004,41.521,4.837,41.521,38.338
			c0,16.351-13.688,26.854-29.195,26.854c-12.499,0-22.01-4.181-29.677-14.177L1696.495,178.293z"/>
		<path fill="#747677" d="M1766.849,79.919l10.671,12.662l-10.33,12.511l-10.671-12.511L1766.849,79.919z M1759.016,201.81v-87.043
			l16.01-2.667v87.034L1759.016,201.81z"/>
		<path fill="#747677" d="M1795.254,201.81v-87.043l15.992-2.667v12.502h0.357c4.824-8.666,14.98-12.502,25.004-12.502
			c17.164,0,33.178,8.169,33.178,29.354v57.68l-16.014,2.676v-59.035c0-12.504-8.824-16.509-18.677-16.509
			c-12.66,0-23.849,7.679-23.849,25.857v47.011L1795.254,201.81z"/>
		<path fill="#747677" d="M1905.494,173.125c5.338,8.498,13.17,13.672,23.178,13.672c11.501,0,22.687-7.837,31.344-14.684
			l3.18,16.851c-10.506,7.334-20.35,12.846-33.533,12.846c-27.166,0-44.844-20.347-44.844-47.194
			c0-23.014,19.668-42.516,42.18-42.516c18.01,0,28.679,8.169,37.854,23.173L1905.494,173.125z M1942.846,132.612
			c-3.678-4.173-9.008-5.503-14.676-5.503c-18.164,0-29.352,14.663-27.348,32.182L1942.846,132.612z"/>
		<path fill="#747677" d="M1985.016,178.293c4.835,5.661,9.676,9.34,17.67,9.34c6.346,0,14.178-3.175,14.178-10.67
			c0-21.845-41.528-6.68-41.528-38.184c0-15.676,12.015-26.68,27.351-26.68c11.844,0,18.834,3.496,27.35,11.834l-9.502,10.51
			c-5.018-5.176-8.838-8.178-16.176-8.178c-6.84,0-13.002,2.343-13.002,10.352c0,19.004,41.521,4.837,41.521,38.338
			c0,16.351-13.689,26.854-29.193,26.854c-12.488,0-21.998-4.181-29.68-14.177L1985.016,178.293z"/>
		<path fill="#747677" d="M2050.93,178.293c4.835,5.661,9.67,9.34,17.683,9.34c6.322,0,14.167-3.175,14.167-10.67
			c0-21.845-41.518-6.68-41.518-38.184c0-15.676,12.004-26.68,27.351-26.68c11.832,0,18.839,3.496,27.338,11.834l-9.502,10.51
			c-5.002-5.176-8.837-8.178-16.188-8.178c-6.826,0-13.004,2.343-13.004,10.352c0,19.004,41.529,4.837,41.529,38.338
			c0,16.351-13.664,26.854-29.175,26.854c-12.512,0-22.021-4.181-29.677-14.177L2050.93,178.293z"/>
		<path fill="#747677" d="M2209.055,201.81v-11.675h-0.34c-4.828,9.498-14.822,11.675-25.007,11.675
			c-19.003,0-31.332-14.177-31.332-32.858c0-18.667,16.509-29.839,33.673-29.839c8.011,0,15.839,2.342,21.344,8.177v-6.508
			c0-12.514-7.496-13.672-20.021-13.672c-7,0-15.992,0.488-24.665,4.835l4.33-16.509c5.84-1.171,15.182-3.336,23.011-3.336
			c22.692,0,33.365,8.998,33.365,31.685v55.35L2209.055,201.81z M2168.371,168.951c0,11.842,6.84,17.846,18.354,17.846
			c10.999,0,20.668-4.172,20.668-17.846c0-10.671-9.51-15.665-19.504-15.665C2178.388,153.286,2168.371,157.959,2168.371,168.951z"
			/>
		<path fill="#747677" d="M2302.291,134.946c-7.183-5.336-11.842-7.837-21.344-7.837c-16.189,0-27.179,14.503-27.179,30.008
			c0,15.177,12.831,29.68,27.507,29.68c9,0,14.995-4.332,20.84-10.011l10.332,10.513c-8.5,8.834-19.172,14.511-31.681,14.511
			c-22.332,0-43.021-19.345-43.021-44.19c0-24.847,17.683-45.52,43.021-45.52c11.667,0,22.34,4.165,31.19,11.834L2302.291,134.946z"
			/>
		<path fill="#747677" d="M2382.825,134.946c-7.167-5.336-11.841-7.837-21.342-7.837c-16.183,0-27.181,14.503-27.181,30.008
			c0,15.177,12.846,29.68,27.507,29.68c9.015,0,15.019-4.332,20.854-10.011l10.332,10.513c-8.512,8.834-19.182,14.511-31.671,14.511
			c-22.354,0-43.028-19.345-43.028-44.19c0-24.847,17.664-45.52,43.028-45.52c11.658,0,22.329,4.165,31.171,11.834L2382.825,134.946
			z"/>
		<path fill="#747677" d="M2490.711,156.949c0,25.347-21.005,44.86-46.016,44.86c-25.022,0-45.848-19.514-45.848-44.86
			c0-25.348,20.825-44.85,45.848-44.85C2469.706,112.1,2490.711,131.602,2490.711,156.949z M2444.695,127.109
			c-16.684,0-29.854,13.5-29.854,29.84c0,16.336,13.171,29.848,29.854,29.848c16.835,0,30.021-13.512,30.021-29.848
			C2474.717,140.609,2461.53,127.109,2444.695,127.109z"/>
		<path fill="#747677" d="M2579.639,112.1v87.034l-15.686,2.676v-12.52h-0.338c-5.158,8.682-15.344,12.52-25.332,12.52
			c-17.188,0-33.183-8.172-33.183-28.344v-58.699l15.994-2.667v59.024c0,12.503,8.851,16.509,18.68,16.509
			c12.678,0,23.841-7.668,23.841-25.85v-47.017L2579.639,112.1z"/>
		<path fill="#747677" d="M2599.335,201.81v-87.043l16.009-2.667v12.502h0.326c4.85-8.666,15.01-12.502,25.021-12.502
			c17.177,0,33.184,8.169,33.184,29.354v57.68l-16.007,2.676v-59.035c0-12.504-8.838-16.509-18.682-16.509
			c-12.67,0-23.842,7.679-23.842,25.857v47.011L2599.335,201.81z"/>
		<path fill="#747677" d="M2734.873,128.941h-22.513v44.686c0,10.669,3.341,14.006,15.019,14.006c3.663,0,7.165-0.676,10.67-1.002
			l-2.834,14.501c-3.163,0.337-6.004,0.678-12.83,0.678c-14.859,0-26.018-10.673-26.018-25.849v-47.02h-13.18l5.654-14.175h7.525
			V94.094l15.993-3.848v24.521h22.513V128.941z"/>
	</g>
	
		<line fill="none" stroke="#747677" stroke-width="2" stroke-miterlimit="10" x1="1447.636" y1="76.129" x2="1447.636" y2="201.129"/>
</g>
</svg>
