<?xml version="1.0" encoding="utf-8"?>
<!-- Generator: Adobe Illustrator 16.0.0, SVG Export Plug-In . SVG Version: 6.00 Build 0)  -->
<!DOCTYPE svg PUBLIC "-//W3C//DTD SVG 1.1//EN" "http://www.w3.org/Graphics/SVG/1.1/DTD/svg11.dtd">
<svg version="1.1" xmlns="http://www.w3.org/2000/svg" xmlns:xlink="http://www.w3.org/1999/xlink" x="0px" y="0px"
	 width="90.667px" height="87.222px" viewBox="0 0 90.667 87.222" enable-background="new 0 0 90.667 87.222" xml:space="preserve">
<g id="STRUCTURE">
</g>
<g id="REBATE">
	<g opacity="0.2">
		<polygon fill="#FFFFFF" points="43.329,56.139 58.782,33.225 40.83,33.225 25.39,56.139 		"/>
		<path fill="#FFFFFF" d="M45.334,1.444c-23.009,0-41.663,18.658-41.663,41.661c0,23.005,18.654,41.663,41.663,41.663
			c23.003,0,41.661-18.658,41.661-41.663C86.996,20.103,68.337,1.444,45.334,1.444z M71.38,41.559h-7.168L50.553,61.154
			l-2.278,3.318H22.382l2.288-2.082h21.916l13.658-20.832h-3.832l-9.113,13.219l-2.279,3.445H19.128l2.288-3.445l9.104-13.219
			H19.304V26.976H71.38V41.559z"/>
	</g>
</g>
</svg>
