<?xml version="1.0" encoding="utf-8"?>
<!-- Generator: Adobe Illustrator 16.0.0, SVG Export Plug-In . SVG Version: 6.00 Build 0)  -->
<!DOCTYPE svg PUBLIC "-//W3C//DTD SVG 1.1//EN" "http://www.w3.org/Graphics/SVG/1.1/DTD/svg11.dtd">
<svg version="1.1" id="Layer_1" xmlns="http://www.w3.org/2000/svg" xmlns:xlink="http://www.w3.org/1999/xlink" x="0px" y="0px"
	 width="205px" height="206px" viewBox="0 0 205 206" enable-background="new 0 0 205 206" xml:space="preserve">
<g>
	<polygon fill="#555759" points="98.162,134 135.247,79 92.161,79 55.105,134 	"/>
	<path fill="#555759" d="M102.977,2.715c-55.229,0-100,44.792-100,100c0,55.22,44.771,100,100,100c55.215,0,100-44.78,100-100
		C202.977,47.508,158.191,2.715,102.977,2.715z M165.5,99h-17.211l-32.783,47.034L110.037,154H47.889l5.488-5h52.603l32.783-50
		h-9.194l-21.88,31.736L102.239,139H40.076l5.488-8.264L67.42,99H40.5V64h125V99z"/>
</g>
</svg>
