<?xml version="1.0" encoding="utf-8"?>
<!-- Generator: Adobe Illustrator 16.0.0, SVG Export Plug-In . SVG Version: 6.00 Build 0)  -->
<!DOCTYPE svg PUBLIC "-//W3C//DTD SVG 1.1//EN" "http://www.w3.org/Graphics/SVG/1.1/DTD/svg11.dtd">
<svg version="1.1" id="Layer_1" xmlns="http://www.w3.org/2000/svg" xmlns:xlink="http://www.w3.org/1999/xlink" x="0px" y="0px"
	 width="204.295px" height="204.046px" viewBox="0 0 204.295 204.046" enable-background="new 0 0 204.295 204.046"
	 xml:space="preserve">
<path fill="#6DA642" d="M102.176,1.243c-55.222,0-100,44.769-100,99.99c0,55.23,44.778,100.01,100,100.01
	c55.234,0,100-44.779,100-100.01C202.176,46.012,157.41,1.243,102.176,1.243z"/>
<g>
	<path fill="#FFFFFF" d="M47.316,124.724c0-0.011,0.006-0.017,0.006-0.017v-11.712h-3.943v11.702c0,0,0.002,0.017,0.002,0.028
		c-1.65,0.153-2.944,1.522-2.944,3.211l-1.532,8.811c0,1.792,1.454,3.241,3.244,3.241h6.399c1.796,0,3.245-1.449,3.245-3.241
		l-1.527-8.811C50.266,126.246,48.966,124.875,47.316,124.724z"/>
	<path fill="#FFFFFF" d="M172.974,98.667l-17.689-41.979c-0.77-1.829-2.559-3.021-4.546-3.021H57.83
		c-1.839,0-3.527,1.026-4.375,2.654L31.289,98.84c-0.804,1.533-0.742,3.367,0.15,4.845c0.896,1.471,2.494,2.375,4.22,2.375h33.304
		l-6.467,26.051c-0.094,0.391-0.144,0.789-0.144,1.19c0,10.689,14.956,17.078,40.007,17.078s40.009-6.389,40.009-17.078
		c0-0.402-0.05-0.8-0.146-1.19l-6.47-26.051h32.897c0.014,0,0.028,0,0.042,0c2.726,0,4.934-2.21,4.934-4.934
		C173.626,100.229,173.386,99.39,172.974,98.667z M102.359,140.507c-20.111,0-29.212-4.653-30.073-6.874l6.849-27.573h46.447
		l6.846,27.573C131.569,135.854,122.472,140.507,102.359,140.507z M43.799,96.189l8.451-16.212h48.105
		c1.09,0,1.974-0.883,1.974-1.974c0-1.09-0.884-1.977-1.974-1.977H54.31l6.513-12.487h86.645l13.749,32.649H43.799z"/>
</g>
</svg>
