<?xml version="1.0" encoding="utf-8"?>
<!-- Generator: Adobe Illustrator 16.0.0, SVG Export Plug-In . SVG Version: 6.00 Build 0)  -->
<!DOCTYPE svg PUBLIC "-//W3C//DTD SVG 1.1//EN" "http://www.w3.org/Graphics/SVG/1.1/DTD/svg11.dtd">
<svg version="1.1" id="Layer_1" xmlns="http://www.w3.org/2000/svg" xmlns:xlink="http://www.w3.org/1999/xlink" x="0px" y="0px"
	 width="204.295px" height="204.046px" viewBox="0 0 204.295 204.046" enable-background="new 0 0 204.295 204.046"
	 xml:space="preserve">
<g>
	<path fill="#555759" d="M120.851,102.023c0-9.938-8.062-18-17.998-18c-9.938,0-18.001,8.063-18.001,18c0,9.949,8.062,18,18.001,18
		C112.789,120.023,120.851,111.972,120.851,102.023z"/>
	<path fill="#555759" d="M180.851,84.023h-11.999c-0.868,0-1.641,0.328-2.438,0.493c-1.546-5.602-3.821-10.922-6.702-15.821
		c0.28-0.234,0.631-0.339,0.891-0.609l8.506-8.485c4.689-4.687,4.689-12.281,0-16.968l-8.506-8.508
		c-4.689-4.688-12.282-4.688-16.969,0l-8.485,8.508c-0.398,0.398-0.586,0.915-0.914,1.359c-4.335-2.367-9.022-4.195-13.876-5.532
		c0.165-0.809,0.492-1.57,0.492-2.437V24.023c0-6.621-5.391-12-11.999-12h-12c-6.634,0-12,5.378-12,12v12.001
		c0,0.866,0.306,1.628,0.492,2.437c-5.767,1.594-11.202,3.938-16.242,6.938c-0.517-0.961-1.009-1.945-1.829-2.766l-8.483-8.496
		c-2.25-2.25-5.319-3.516-8.485-3.516c-3.186,0-6.232,1.266-8.483,3.516l-8.508,8.496c-4.664,4.687-4.664,12.281,0,16.968
		l8.508,8.485c0.913,0.937,2.062,1.582,3.212,2.156c-2.462,4.465-4.384,9.258-5.767,14.274c-0.797-0.165-1.571-0.493-2.414-0.493
		H24.853c-6.634,0-12,5.379-12,12v12c0,6.632,5.366,12,12,12h11.999c0.843,0,1.617-0.305,2.414-0.493
		c1.383,5.027,3.305,9.821,5.767,14.298c-1.15,0.562-2.275,1.195-3.212,2.132l-8.484,8.485c-4.688,4.687-4.688,12.28,0,16.968
		l8.484,8.485c4.688,4.687,12.28,4.687,16.969,0l8.483-8.485c0.82-0.82,1.29-1.805,1.829-2.766c5.016,3,10.476,5.367,16.242,6.949
		c-0.187,0.809-0.492,1.57-0.492,2.425v12c0,6.633,5.366,12,12,12h12c6.608,0,11.999-5.367,11.999-12v-12
		c0-0.855-0.327-1.617-0.492-2.425c4.854-1.348,9.541-3.165,13.876-5.52c0.328,0.422,0.516,0.961,0.914,1.336l8.485,8.485
		c4.687,4.687,12.279,4.687,16.969,0l8.483-8.485c2.25-2.25,3.516-5.297,3.516-8.484c0-3.175-1.266-6.234-3.516-8.484l-8.483-8.485
		c-0.26-0.258-0.61-0.352-0.891-0.586c2.881-4.921,5.156-10.219,6.702-15.844c0.797,0.188,1.569,0.493,2.438,0.493h11.999
		c6.611,0,12.002-5.368,12.002-12v-12C192.853,89.402,187.462,84.023,180.851,84.023z M60.851,102.023c0-23.18,18.798-42,42.002-42
		c23.18,0,41.999,18.821,41.999,42c0,23.203-18.819,42-41.999,42C79.648,144.023,60.851,125.227,60.851,102.023z"/>
</g>
</svg>
