<?xml version="1.0" encoding="utf-8"?>
<!-- Generator: Adobe Illustrator 16.0.0, SVG Export Plug-In . SVG Version: 6.00 Build 0)  -->
<!DOCTYPE svg PUBLIC "-//W3C//DTD SVG 1.1//EN" "http://www.w3.org/Graphics/SVG/1.1/DTD/svg11.dtd">
<svg version="1.1" id="Layer_1" xmlns="http://www.w3.org/2000/svg" xmlns:xlink="http://www.w3.org/1999/xlink" x="0px" y="0px"
	 width="247px" height="219.416px" viewBox="0 0 247 219.416" enable-background="new 0 0 247 219.416" xml:space="preserve">
<symbol  id="TextInput_x5F_borderSkin" viewBox="-77 -11 154 22">
	<polygon fill="#FFFFFF" points="76.25,-10 -76.249,-10 -76.249,10 76.25,10 	"/>
	<polygon fill="#6E6F70" points="-76.25,10 -76.25,11 76.25,11 76.25,10 -76.25,10 	"/>
	<polygon fill="#D2D5D6" points="-77,-11 -77,11 -76.998,11 -76.003,11 -76.003,-10 76.003,-10 76.003,11 77,11 77,-11 -77,-11 	"/>
</symbol>
<symbol  id="TextInput_x5F_borderSkin_2" viewBox="-77 -11 154 22">
	<polygon fill="#FFFFFF" points="76.25,-10 -76.249,-10 -76.249,10 76.25,10 	"/>
	<polygon fill="#6D6F70" points="-76.25,10 -76.25,11 76.25,11 76.25,10 -76.25,10 	"/>
	<polygon fill="#D3D5D6" points="-77,-11 -77,11 -76.998,11 -76.003,11 -76.003,-10 76.003,-10 76.003,11 77,11 77,-11 -77,-11 	"/>
</symbol>
<g id="acr_bubbles">
	<g id="play_static">
	</g>
	<g id="download_static">
	</g>
</g>
<g id="home_grey">
	<g id="nav_previous">
	</g>
	<g id="nav_next">
	</g>
</g>
<g id="home_rollover">
	<g id="home_grey_1_">
	</g>
</g>
<g id="previous_rollover">
	<g id="nav_previous_1_">
	</g>
</g>
<g id="next_rollover">
	<g id="nav_next_1_">
	</g>
</g>
<rect fill="#F18F00" width="247" height="187"/>
<g>
	<g>
		<path fill="#FFFFFF" d="M79.486,66.673c-8.382,0-15.203-6.823-15.203-15.208c0-8.384,6.821-15.204,15.203-15.204
			c8.386,0,15.207,6.82,15.207,15.204C94.693,59.85,87.872,66.673,79.486,66.673z M79.486,42.503c-4.94,0-8.961,4.021-8.961,8.961
			c0,4.944,4.021,8.966,8.961,8.966c4.944,0,8.965-4.022,8.965-8.966C88.451,46.523,84.431,42.503,79.486,42.503z"/>
		<path fill="#FFFFFF" d="M79.486,107.249c-8.382,0-15.203-6.823-15.203-15.208c0-8.384,6.821-15.204,15.203-15.204
			c8.386,0,15.207,6.82,15.207,15.204C94.693,100.426,87.872,107.249,79.486,107.249z M79.486,83.079
			c-4.94,0-8.961,4.021-8.961,8.961c0,4.944,4.021,8.966,8.961,8.966c4.944,0,8.965-4.022,8.965-8.966
			C88.451,87.1,84.431,83.079,79.486,83.079z"/>
		<path fill="#FFFFFF" d="M79.486,147.825c-8.382,0-15.203-6.823-15.203-15.208c0-8.383,6.821-15.204,15.203-15.204
			c8.386,0,15.207,6.82,15.207,15.204C94.693,141.002,87.872,147.825,79.486,147.825z M79.486,123.655
			c-4.94,0-8.961,4.021-8.961,8.961c0,4.944,4.021,8.966,8.961,8.966c4.944,0,8.965-4.022,8.965-8.966
			C88.451,127.676,84.431,123.655,79.486,123.655z"/>
	</g>
	<path fill="#FFFFFF" d="M190.775,128.008H112.72c-2.956,0-5.353,2.402-5.353,5.358s2.396,5.355,5.353,5.355h78.056
		c2.957,0,5.358-2.399,5.358-5.355S193.732,128.008,190.775,128.008z"/>
	<path fill="#FFFFFF" d="M190.775,86.45H112.72c-2.956,0-5.353,2.396-5.353,5.355c0,2.96,2.396,5.353,5.353,5.353h78.056
		c2.957,0,5.358-2.393,5.358-5.353C196.134,88.846,193.732,86.45,190.775,86.45z"/>
	<path fill="#FFFFFF" d="M112.72,55.598h78.056c2.957,0,5.358-2.396,5.358-5.353c0-2.96-2.401-5.358-5.358-5.358H112.72
		c-2.956,0-5.353,2.398-5.353,5.358C107.367,53.202,109.764,55.598,112.72,55.598z"/>
</g>
<polyline fill="#EA7200" points="0,187 29,187 29,215 "/>
</svg>
